{"accessors" : [{"bufferView" : 0, "byteOffset" : 0, "componentType" : 5123, "count" : 14118, "type" : "SCALAR", "max" : [11890], "min" : [0]}, {"bufferView" : 1, "byteOffset" : 0, "componentType" : 5126, "count" : 11891, "type" : "VEC3", "max" : [66.02542114257812, 95.64289855957031, 24.667449951171875], "min" : [-66.02542114257812, 0.7852479815483093, -41.37498092651367], "name" : "POSITION"}, {"bufferView" : 1, "byteOffset" : 12, "componentType" : 5126, "count" : 11891, "type" : "VEC3", "max" : [0.9978160262107849, 0.9999883770942688, 1.000000238418579], "min" : [-0.9978160262107849, -1.0000044107437134, -1.000002384185791], "name" : "NORMAL"}, {"bufferView" : 1, "byteOffset" : 24, "componentType" : 5126, "count" : 11891, "type" : "VEC2", "max" : [1, -0.006276965141296387], "min" : [0, -0.9940760135650635], "name" : "TEXCOORD_0"}, {"bufferView" : 1, "byteOffset" : 32, "componentType" : 5126, "count" : 11891, "type" : "VEC3", "max" : [1, 1, 1], "min" : [1, 1, 1], "name" : "COLOR_0"}, {"bufferView" : 0, "byteOffset" : 28236, "componentType" : 5123, "count" : 192, "type" : "SCALAR", "max" : [167], "min" : [0]}, {"bufferView" : 2, "byteOffset" : 0, "componentType" : 5126, "count" : 168, "type" : "VEC3", "max" : [18.606599807739258, 87.97350311279297, 14.444820404052734], "min" : [-18.606599807739258, 72.32801055908203, -0.9140719771385193], "name" : "POSITION"}, {"bufferView" : 2, "byteOffset" : 12, "componentType" : 5126, "count" : 168, "type" : "VEC3", "max" : [0.9125848412513733, 0.5871357917785645, 0.6470634937286377], "min" : [-0.9125848412513733, -0.29301270842552185, 0.3509141504764557], "name" : "NORMAL"}, {"bufferView" : 2, "byteOffset" : 24, "componentType" : 5126, "count" : 168, "type" : "VEC2", "max" : [0.49463000893592834, -1.757174015045166], "min" : [0.00536996079608798, -1.9947290420532227], "name" : "TEXCOORD_0"}, {"bufferView" : 2, "byteOffset" : 32, "componentType" : 5126, "count" : 168, "type" : "VEC3", "max" : [1, 1, 1], "min" : [1, 1, 1], "name" : "COLOR_0"}], "asset" : {"generator" : "Aspose.3D 22.1", "version" : "2.0"}, "buffers" : [{"uri" : "data:application/octet-stream;base64,", "byteLength" : 658272}], "bufferViews" : [{"buffer" : 0, "byteOffset" : 0, "byteLength" : 28620, "target" : 34963}, {"buffer" : 0, "byteOffset" : 28624, "byteLength" : 621192, "byteStride" : 44, "target" : 34962}, {"buffer" : 0, "byteOffset" : 649820, "byteLength" : 8448, "byteStride" : 44, "target" : 34962}], "meshes" : [{"primitives" : [{"attributes" : {"POSITION" : 1, "NORMAL" : 2, "TEXCOORD_0" : 3, "COLOR_0" : 4}, "indices" : 0, "mode" : 4}, {"attributes" : {"POSITION" : 6, "NORMAL" : 7, "TEXCOORD_0" : 8, "COLOR_0" : 9}, "indices" : 5, "mode" : 4}], "name" : ""}], "nodes" : [{"matrix" : [1, 0, 0, 0, 0, -1.62921E-07, -1, 0, 0, 1, -1.62921E-07, 0, 0, 0, 0, 1], "mesh" : 0, "name" : "vsn_mesh_2_Body"}], "scene" : 0, "scenes" : [{"nodes" : [0]}]}