{
  "accessors": [
    {
      "name": "Psyduck_1_0_positions",
      "componentType": 5126,
      "count": 14574,
      "min": [
        -56.43729782104492,
        -0.0000025848630684777163,
        -48.302398681640625
      ],
      "max": [
        56.43729782104492,
        102.64500427246094,
        54.30300521850586
      ],
      "type": "VEC3",
      "bufferView": 0,
      "byteOffset": 0
    },
    {
      "name": "Psyduck_1_0_normals",
      "componentType": 5126,
      "count": 14574,
      "min": [
        -1,
        -1,
        -0.999920129776001
      ],
      "max": [
        1,
        0.9999939799308777,
        0.9996045827865601
      ],
      "type": "VEC3",
      "bufferView": 1,
      "byteOffset": 0
    },
    {
      "name": "Psyduck_1_0_texcoords",
      "componentType": 5126,
      "count": 14574,
      "min": [
        0,
        0.001642763614654541
      ],
      "max": [
        0.9977928400039673,
        0.9940571188926697
      ],
      "type": "VEC2",
      "bufferView": 2,
      "byteOffset": 0
    },
    {
      "name": "Psyduck_1_0_indices",
      "componentType": 5123,
      "count": 14574,
      "min": [
        0
      ],
      "max": [
        14573
      ],
      "type": "SCALAR",
      "bufferView": 3,
      "byteOffset": 0
    }
  ],
  "asset": {
    "generator": "obj2gltf",
    "version": "2.0"
  },
  "buffers": [
    {
      "name": "Psyduck-O",
      "byteLength": 495516,
      "uri": "data:application/octet-stream;base64,"
    }
  ],
  "bufferViews": [
    {
      "name": "bufferView_0",
      "buffer": 0,
      "byteLength": 174888,
      "byteOffset": 0,
      "byteStride": 12,
      "target": 34962
    },
    {
      "name": "bufferView_1",
      "buffer": 0,
      "byteLength": 174888,
      "byteOffset": 174888,
      "byteStride": 12,
      "target": 34962
    },
    {
      "name": "bufferView_2",
      "buffer": 0,
      "byteLength": 116592,
      "byteOffset": 349776,
      "byteStride": 8,
      "target": 34962
    },
    {
      "name": "bufferView_3",
      "buffer": 0,
      "byteLength": 29148,
      "byteOffset": 466368,
      "target": 34963
    }
  ],
  "materials": [
    {
      "name": "Body01",
      "pbrMetallicRoughness": {
        "baseColorFactor": [
          0.5,
          0.5,
          0.5,
          1
        ],
        "metallicFactor": 0,
        "roughnessFactor": 1
      },
      "emissiveFactor": [
        0,
        0,
        0
      ],
      "alphaMode": "OPAQUE",
      "doubleSided": false
    }
  ],
  "meshes": [
    {
      "name": "Psyduck_1",
      "primitives": [
        {
          "attributes": {
            "POSITION": 0,
            "NORMAL": 1,
            "TEXCOORD_0": 2
          },
          "indices": 3,
          "material": 0,
          "mode": 4
        }
      ]
    }
  ],
  "nodes": [
    {
      "name": "Psyduck",
      "mesh": 0
    }
  ],
  "scene": 0,
  "scenes": [
    {
      "nodes": [
        0
      ]
    }
  ]
}
